# xmcd
#
# Track frame offsets:
#	182
#	13582
#	27105
#	39715
#	53122
#	65265
#	78475
#	92027
#	102632
#	116475
#	126015
#	136642
#	146635
#	158707
#	169892
#	180465
#	192167
#	205597
#	220182
#	235267
#	251377
#	268027
#	280652
#	297822
#
# Disc length: 4158 seconds
# Revision: 3
# Processed by: cddbd v1.5.2PL0 Copyright (c) Steve Scherf et al.
# Submitted via: dBpowerAMP V12.0
#
DISCID=4e103c18
DTITLE=Etta James - Tell Mama volume 1
DYEAR=1900
DGENRE=Rythym and Blues
TTITLE0=All That I Could Do Was Cry
TTITLE1=At Last
TTITLE2=Something's Got a Hold on Me
TTITLE3=Fool That I Am
TTITLE4=Stop the Wedding
TTITLE5=Pushover
TTITLE6=Do I Make Myself Clear
TTITLE7=In the Basement, Part 1
TTITLE8=I Prefer You
TTITLE9=Watch Dog
TTITLE10=Tell Mama
TTITLE11=Just a Little Bit
TTITLE12=The Same Rope
TTITLE13=Security
TTITLE14=Miss Pitiful
TTITLE15=I'd Rather Go Blind
TTITLE16=Losers, Weepers, Part 1
TTITLE17=W. O. M. A. N.
TTITLE18=You Can Leave Your Hat on
TTITLE19=God's Song
TTITLE20=Let's Burn Down the Cornfield
TTITLE21=Feeling Uneasy
TTITLE22=Lovin' Arms
TTITLE23=Gonna Have Some Fun Tonight
EXTD=
EXTT0=
EXTT1=
EXTT2=
EXTT3=
EXTT4=
EXTT5=
EXTT6=
EXTT7=
EXTT8=
EXTT9=
EXTT10=
EXTT11=
EXTT12=
EXTT13=
EXTT14=
EXTT15=
EXTT16=
EXTT17=
EXTT18=
EXTT19=
EXTT20=
EXTT21=
EXTT22=
EXTT23=
PLAYORDER=
